<svg width="224" height="230" viewBox="0 0 224 230" fill="none" xmlns="http://www.w3.org/2000/svg">
<g clip-path="url(#clip0_4001_111)">
<path d="M69.27 163.06H63.33V191.68H84.09V186.34H69.27V163.06Z" fill="white"/>
<path d="M138.82 178.02L131.91 163.1H131.2L124.3 177.98L118.99 163.1H112.66L123.14 191.52L123.21 191.71H124.1L131.57 175.76L138.97 191.68H139.9L150.57 163.1H144.24L138.82 178.02Z" fill="white"/>
<path d="M153.17 191.68H174.4V186.27H159.12V180.26H172.67V174.82H159.12V168.39H174.4V163.06H153.17V191.68Z" fill="white"/>
<path d="M185.15 163.06H179.2V191.68H199.97V186.34H185.15V163.06Z" fill="white"/>
<path d="M208.61 163.06H202.66V191.68H223.43V186.34H208.61V163.06Z" fill="white"/>
<path d="M44.77 208.71C44.77 209.09 44.7 209.48 44.57 209.87C44.44 210.26 44.25 210.61 44.01 210.92C43.77 211.22 43.46 211.47 43.11 211.65C42.76 211.83 42.33 211.93 41.85 211.93H35.55V205.85H42.23C42.56 205.85 42.88 205.93 43.19 206.09C43.5 206.25 43.78 206.46 44.01 206.72C44.24 206.98 44.43 207.28 44.57 207.63C44.71 207.98 44.78 208.34 44.78 208.72M45.92 220.29C45.92 220.71 45.84 221.13 45.67 221.54C45.5 221.96 45.27 222.34 44.99 222.69C44.71 223.03 44.38 223.3 44.01 223.5C43.65 223.69 43.25 223.79 42.84 223.79H35.55V217.25H42.27C43.41 217.25 44.32 217.55 44.97 218.13C45.62 218.72 45.93 219.42 45.93 220.29M49.95 215.92C49.39 215.31 48.75 214.82 48.05 214.46C47.78 214.32 47.51 214.21 47.24 214.12C47.46 214.03 47.67 213.91 47.87 213.78C48.46 213.39 48.97 212.91 49.38 212.35C49.79 211.79 50.12 211.17 50.36 210.51C50.6 209.84 50.72 209.2 50.72 208.61C50.72 206.99 50.49 205.64 50.05 204.6C49.6 203.55 48.98 202.71 48.2 202.1C47.43 201.5 46.51 201.08 45.48 200.86C44.47 200.64 43.38 200.53 42.24 200.53H29.62V229.15H42.86C44.08 229.15 45.24 229.01 46.32 228.72C47.42 228.43 48.39 227.94 49.21 227.27C50.03 226.59 50.69 225.7 51.17 224.6C51.64 223.51 51.88 222.17 51.88 220.61C51.88 219.71 51.7 218.84 51.34 218.05C50.98 217.26 50.52 216.55 49.97 215.95" fill="white"/>
<path d="M71.03 219.47H63.95L67.51 211.98L71.04 219.47H71.03ZM67.06 200.55L52.44 229.13H58.92L61.06 224.73H73.91L76.09 229.13H82.57L67.95 200.55H67.06Z" fill="white"/>
<path d="M104.03 217.1L86.09 200.62L86.01 200.55H85.03V229.13H90.98V212.83L109 229.13H109.97V200.55H104.03V217.1Z" fill="white"/>
<path d="M139.65 200.55H132.31L121.6 214.2V200.51H115.66V229.13H121.6V216.83L132.94 229.13H140.82L127.9 215.3L139.65 200.55Z" fill="white"/>
<path d="M143.38 229.13H164.61V223.72H149.32V217.71H162.88V212.27H149.32V205.84H164.61V200.51H143.38V229.13Z" fill="white"/>
<path d="M185.13 213.78C184.75 214.15 184.32 214.42 183.84 214.6C183.35 214.78 182.88 214.87 182.43 214.87H175.35V205.84H182.43C183.31 205.84 184.02 206.01 184.53 206.33C185.05 206.66 185.45 207.07 185.73 207.54C186.02 208.02 186.21 208.53 186.3 209.05C186.4 209.59 186.45 210.07 186.45 210.45C186.45 211.2 186.32 211.85 186.07 212.4C185.82 212.95 185.5 213.42 185.12 213.79M175.36 220.2H180.22C181.26 221.69 182.31 223.17 183.34 224.6C184.41 226.08 185.52 227.57 186.63 229.01L186.72 229.12H193.83L193.49 228.66C191.28 225.61 189 222.54 186.73 219.54C188.38 218.82 189.73 217.69 190.75 216.17C191.84 214.54 192.39 212.62 192.39 210.45C192.39 209.02 192.14 207.67 191.66 206.46C191.17 205.24 190.49 204.18 189.62 203.3C188.75 202.42 187.69 201.73 186.47 201.24C185.25 200.76 183.89 200.51 182.43 200.51H169.4V229.13H175.34V220.21L175.36 220.2Z" fill="white"/>
<path d="M25.43 167.07C24.52 166.15 23.5 165.35 22.4 164.69C21.3 164.03 20.09 163.51 18.81 163.15C17.53 162.79 16.18 162.6 14.81 162.6C12.79 162.6 10.85 162.99 9.06001 163.77C7.27001 164.55 5.69001 165.62 4.36001 166.95C3.03001 168.29 1.95001 169.87 1.18001 171.65C0.40001 173.44 0.0100098 175.37 0.0100098 177.4C0.0100098 179.43 0.40001 181.36 1.18001 183.15C1.96001 184.94 3.03001 186.52 4.36001 187.85C5.69001 189.18 7.28001 190.26 9.06001 191.03C10.85 191.81 12.78 192.2 14.81 192.2C16.18 192.2 17.53 192.02 18.81 191.65C20.09 191.29 21.3 190.77 22.4 190.11C23.5 189.45 24.52 188.65 25.43 187.73C26.34 186.81 27.11 185.76 27.74 184.62L27.9 184.33L22.36 182.09L22.23 182.29C21.83 182.88 21.36 183.46 20.83 183.99C20.3 184.52 19.71 184.99 19.06 185.38C18.42 185.77 17.73 186.09 17.02 186.31C16.31 186.53 15.57 186.64 14.81 186.64C13.58 186.64 12.42 186.39 11.35 185.88C10.28 185.37 9.33001 184.69 8.55001 183.86C7.76001 183.02 7.12001 182.03 6.65001 180.92C6.18001 179.81 5.95001 178.63 5.95001 177.4C5.95001 176.17 6.19001 175.01 6.66001 173.89C7.13001 172.77 7.77001 171.77 8.56001 170.93C9.35001 170.09 10.29 169.41 11.36 168.91C12.43 168.41 13.59 168.15 14.82 168.15C15.58 168.15 16.32 168.26 17.03 168.48C17.74 168.7 18.43 169.01 19.07 169.41C19.71 169.81 20.31 170.27 20.84 170.79C21.37 171.31 21.84 171.87 22.24 172.47L22.37 172.67L27.91 170.43L27.75 170.14C27.13 169.02 26.35 167.99 25.44 167.07" fill="white"/>
<path d="M53.22 177.37C53.22 178.6 52.98 179.79 52.52 180.9C52.05 182.01 51.41 183.01 50.61 183.86C49.81 184.71 48.86 185.4 47.79 185.9C46.73 186.4 45.57 186.66 44.34 186.66C43.11 186.66 41.95 186.41 40.89 185.9C39.82 185.39 38.87 184.71 38.07 183.86C37.27 183.01 36.63 182.01 36.16 180.9C35.69 179.79 35.46 178.61 35.46 177.37C35.46 176.13 35.7 174.98 36.16 173.86C36.63 172.74 37.27 171.74 38.07 170.9C38.87 170.06 39.82 169.38 40.89 168.88C41.95 168.38 43.11 168.12 44.34 168.12C45.57 168.12 46.72 168.37 47.79 168.88C48.86 169.39 49.81 170.07 50.61 170.9C51.41 171.74 52.05 172.73 52.52 173.86C52.99 174.98 53.22 176.16 53.22 177.37ZM54.81 166.88C53.47 165.54 51.89 164.47 50.11 163.7C48.32 162.92 46.37 162.53 44.33 162.53C42.29 162.53 40.37 162.92 38.58 163.7C36.79 164.48 35.21 165.55 33.88 166.88C32.54 168.22 31.47 169.81 30.7 171.6C29.92 173.4 29.53 175.34 29.53 177.36C29.53 179.38 29.92 181.36 30.7 183.14C31.48 184.93 32.55 186.51 33.88 187.84C35.21 189.17 36.8 190.24 38.58 191.02C40.37 191.8 42.3 192.19 44.33 192.19C46.36 192.19 48.32 191.8 50.11 191.02C51.9 190.24 53.48 189.17 54.81 187.84C56.15 186.5 57.22 184.92 57.99 183.14C58.77 181.35 59.16 179.4 59.16 177.36C59.16 175.32 58.77 173.4 57.99 171.6C57.21 169.8 56.14 168.21 54.81 166.88Z" fill="white"/>
<path d="M106.51 177.4C106.51 179.29 106.25 180.84 105.73 181.99C105.21 183.14 104.55 184.05 103.76 184.7C102.97 185.34 102.08 185.78 101.1 186C100.1 186.22 99.11 186.34 98.14 186.34H92.72V168.46H98.14C99.08 168.46 100.07 168.57 101.06 168.8C102.03 169.02 102.93 169.45 103.74 170.08C104.54 170.71 105.21 171.62 105.72 172.78C106.24 173.95 106.5 175.5 106.5 177.39M108.19 166.66C105.57 164.27 102.18 163.06 98.13 163.06H86.79V191.68H98.13C100.14 191.68 102.02 191.38 103.71 190.78C105.41 190.18 106.92 189.29 108.19 188.12C109.59 186.85 110.67 185.28 111.38 183.47C112.09 181.67 112.45 179.62 112.45 177.37C112.45 175.12 112.09 173.11 111.38 171.31C110.67 169.5 109.59 167.94 108.19 166.66Z" fill="white"/>
<path d="M137.71 43.79L151.93 34.29L166.16 43.79L161.53 27.32L174.95 16.73L157.86 16.05L151.93 0L146.01 16.05L128.91 16.73L142.34 27.32L137.71 43.79Z" fill="white"/>
<path d="M163.03 104.66C160.66 101.43 157.65 98.91 154.04 97.14C156.67 95.28 158.83 92.93 160.49 90.11C162.91 86 164.14 81.46 164.14 76.62C164.14 73.61 163.61 70.58 162.57 67.62C161.51 64.65 160.01 61.97 158.09 59.63C156.15 57.27 153.76 55.33 150.99 53.85C148.15 52.34 144.96 51.57 141.5 51.57H94.69V93.89C90.06 94.14 85.69 93.27 81.83 91.3C79.83 90.28 78.01 88.99 76.3 87.56C74.99 86.46 73.73 85.3 72.61 83.97C70 80.89 67.93 77.29 66.47 73.29C65 69.28 64.26 65 64.26 60.55C64.26 56.56 64.89 52.54 66.12 48.59C67.34 44.68 69.2 41.12 71.64 38.01C74.06 34.92 77.09 32.39 80.65 30.47C85.78 27.72 92.35 26.84 99.38 28.34C101.54 28.8 103.67 29.58 105.72 30.67C107.76 31.75 109.67 33.2 111.39 34.96C113.11 36.72 114.62 38.95 115.86 41.59L116.9 43.8L129.51 35.63L128.7 33.94C125.75 27.78 121.19 22.71 115.14 18.88C109.08 15.05 101.75 13.11 93.37 13.11C86.33 13.11 79.92 14.51 74.33 17.25C68.78 19.98 64.02 23.62 60.17 28.09C56.34 32.54 53.4 37.62 51.42 43.2C49.45 48.77 48.45 54.43 48.45 60.05C48.45 66.01 49.54 71.95 51.68 77.69C53.83 83.43 56.89 88.63 60.8 93.15C64.71 97.67 69.41 101.4 74.77 104.21C75.26 104.47 75.78 104.65 76.28 104.89C76.6 105.04 76.91 105.18 77.23 105.32C78.19 105.74 79.16 106.12 80.15 106.45C80.81 106.68 81.47 106.88 82.15 107.07C83.16 107.35 84.18 107.6 85.22 107.8C85.91 107.93 86.61 108.05 87.32 108.15C89.08 108.39 90.89 108.51 92.73 108.51C93.36 108.51 94.02 108.5 94.66 108.47C97.67 108.33 100.76 107.85 103.89 107.05C107.67 106.09 111.3 104.66 114.7 102.81C115.98 102.11 117.21 101.35 118.4 100.53C119.19 99.98 119.96 99.41 120.71 98.81C121.83 97.91 122.9 96.95 123.92 95.93C124.61 95.24 125.26 94.52 125.87 93.78C126.48 93.03 127.06 92.26 127.6 91.46C128.68 89.85 129.61 88.14 130.38 86.33L130.93 84.91L129.58 83.7H129.6L119.92 74.79C119.92 74.79 118.93 77.07 118.38 78.11C117.83 79.15 116.69 80.99 115.9 82.03C114.75 83.54 113.79 84.69 112.54 85.95C111.83 86.66 111.08 87.28 110.32 87.9V65.74H137.54C139.1 65.74 140.52 66.05 141.9 66.68C143.25 67.3 144.41 68.18 145.34 69.28C146.31 70.44 147.1 71.84 147.68 73.44C148.27 75.05 148.57 76.81 148.57 78.66C148.57 80.4 148.26 82.08 147.64 83.63C147.02 85.2 146.17 86.58 145.13 87.72C144.08 88.87 142.87 89.77 141.42 90.45C140.04 91.11 138.48 91.44 136.78 91.44H132.67C132.21 92.27 131.72 93.08 131.19 93.87C129.96 95.7 128.54 97.42 126.98 98.99C124.92 101.05 122.65 102.91 120.22 104.53C119.82 104.8 119.99 104.96 120.2 104.96H140.32C141.99 104.96 143.55 105.31 144.94 106C146.36 106.71 147.61 107.69 148.63 108.89C149.68 110.13 150.54 111.6 151.17 113.25C151.79 114.9 152.1 116.63 152.1 118.38C152.1 120.13 151.77 121.8 151.12 123.4C150.48 124.98 149.56 126.39 148.4 127.59C147.23 128.8 145.86 129.78 144.33 130.5C142.86 131.21 141.21 131.56 139.43 131.56H110.31V109.55C108.55 110.21 106.76 110.78 104.94 111.25C101.75 112.06 98.45 112.54 94.85 112.71C94.79 112.71 94.72 112.71 94.64 112.72V145.7H139.43C143.28 145.7 146.95 145.11 150.32 143.94C153.72 142.76 156.76 141.06 159.35 138.87C161.97 136.66 164.07 133.96 165.59 130.83C167.12 127.69 167.89 124.18 167.89 120.4C167.89 114.4 166.24 109.09 162.99 104.64" fill="white"/>
<path d="M166.59 145.84C164.77 145.84 163.48 144.48 163.48 142.68C163.48 140.78 164.92 139.52 166.59 139.52C168.26 139.52 169.68 140.78 169.68 142.68C169.68 144.58 168.24 145.84 166.59 145.84ZM166.59 140.07C165.22 140.07 164.16 141.14 164.16 142.68C164.16 144.12 165.09 145.29 166.59 145.29C167.94 145.29 169.01 144.23 169.01 142.68C169.01 141.13 167.95 140.07 166.59 140.07ZM165.96 144.49H165.39V140.99H166.72C167.56 140.99 168 141.29 168 142C168 142.63 167.61 142.9 167.09 142.95L168.07 144.49H167.42L166.52 142.99H165.98V144.49H165.96ZM166.6 142.5C167.03 142.5 167.41 142.46 167.41 141.95C167.41 141.53 167 141.48 166.65 141.48H165.96V142.5H166.6Z" fill="white"/>
</g>
<defs>
<clipPath id="clip0_4001_111">
<rect width="223.43" height="229.13" fill="white"/>
</clipPath>
</defs>
</svg>
