<svg width="498" height="64" viewBox="0 0 498 64" fill="none" xmlns="http://www.w3.org/2000/svg">
<g clip-path="url(#clip0_4001_43)">
<path d="M150.44 17.13H144.26V46.85H165.83V41.31H150.44V17.13Z" fill="#012169"/>
<path d="M222.66 32.67L215.49 17.17H214.74L207.57 32.62L202.06 17.17H195.49L206.38 46.69L206.45 46.89H207.37L215.13 30.32L222.81 46.85H223.77L234.86 17.17H228.28L222.66 32.67Z" fill="#012169"/>
<path d="M237.56 46.85H259.6V41.23H243.73V35H257.81V29.34H243.73V22.67H259.6V17.13H237.56V46.85Z" fill="#012169"/>
<path d="M270.76 17.13H264.59V46.85H286.15V41.31H270.76V17.13Z" fill="#012169"/>
<path d="M295.13 17.13H288.95V46.85H310.52V41.31H295.13V17.13Z" fill="#012169"/>
<path d="M342.71 25.65C342.71 26.04 342.64 26.45 342.51 26.85C342.38 27.25 342.18 27.62 341.92 27.94C341.67 28.25 341.35 28.51 340.98 28.7C340.61 28.89 340.17 28.99 339.67 28.99H333.13V22.68H340.07C340.42 22.68 340.75 22.76 341.06 22.93C341.38 23.1 341.67 23.32 341.91 23.58C342.15 23.85 342.35 24.17 342.49 24.53C342.63 24.89 342.71 25.27 342.71 25.66M343.9 37.68C343.9 38.12 343.81 38.55 343.64 38.98C343.47 39.41 343.23 39.82 342.93 40.17C342.64 40.52 342.29 40.81 341.91 41.01C341.53 41.21 341.12 41.31 340.7 41.31H333.13V34.52H340.11C341.3 34.52 342.24 34.83 342.91 35.44C343.58 36.05 343.9 36.78 343.9 37.68ZM348.09 33.13C347.51 32.5 346.85 31.99 346.11 31.62C345.83 31.48 345.55 31.36 345.27 31.26C345.5 31.16 345.71 31.05 345.93 30.91C346.54 30.51 347.07 30.01 347.5 29.42C347.93 28.84 348.27 28.2 348.52 27.51C348.77 26.82 348.9 26.15 348.9 25.53C348.9 23.85 348.66 22.45 348.2 21.36C347.73 20.27 347.08 19.39 346.28 18.77C345.48 18.15 344.53 17.71 343.45 17.48C342.4 17.25 341.27 17.13 340.09 17.13H326.98V46.85H340.72C341.99 46.85 343.2 46.7 344.32 46.4C345.46 46.1 346.47 45.59 347.32 44.89C348.17 44.19 348.86 43.26 349.35 42.12C349.84 40.99 350.09 39.59 350.09 37.97C350.09 37.03 349.9 36.13 349.53 35.31C349.16 34.49 348.68 33.76 348.11 33.13" fill="#012169"/>
<path d="M369.98 36.82H362.62L366.32 29.04L369.98 36.82ZM365.86 17.17L350.68 46.85H357.41L359.64 42.28H372.98L375.25 46.85H381.98L366.8 17.17H365.87H365.86Z" fill="#012169"/>
<path d="M404.25 34.36L385.62 17.25L385.54 17.17H384.52V46.85H390.69V29.93L409.4 46.85H410.42V17.17H404.25V34.36Z" fill="#012169"/>
<path d="M441.23 17.17H433.62L422.49 31.35V17.13H416.32V46.85H422.49V34.08L434.27 46.85H442.45L429.03 32.49L441.23 17.17Z" fill="#012169"/>
<path d="M445.11 46.85H467.15V41.23H451.28V35H465.36V29.34H451.28V22.67H467.15V17.13H445.11V46.85Z" fill="#012169"/>
<path d="M488.46 30.92C488.07 31.3 487.62 31.58 487.12 31.77C486.61 31.96 486.12 32.05 485.66 32.05H478.31V22.67H485.66C486.57 22.67 487.31 22.84 487.84 23.18C488.38 23.52 488.8 23.95 489.09 24.43C489.39 24.93 489.59 25.45 489.69 26C489.79 26.57 489.84 27.06 489.84 27.46C489.84 28.23 489.71 28.91 489.45 29.48C489.19 30.05 488.86 30.54 488.46 30.92ZM478.31 37.58H483.36C484.44 39.13 485.53 40.67 486.6 42.15C487.71 43.69 488.86 45.23 490.01 46.73L490.1 46.85H497.48L497.13 46.37C494.83 43.2 492.47 40.02 490.11 36.9C491.82 36.15 493.23 34.98 494.29 33.4C495.42 31.71 495.99 29.72 495.99 27.46C495.99 25.97 495.73 24.58 495.23 23.31C494.73 22.05 494.01 20.94 493.11 20.03C492.21 19.12 491.11 18.4 489.84 17.89C488.57 17.39 487.16 17.13 485.64 17.13H472.11V46.85H478.28V37.58H478.31Z" fill="#012169"/>
<path d="M104.91 21.3C103.97 20.34 102.91 19.51 101.77 18.83C100.63 18.14 99.37 17.6 98.04 17.23C96.71 16.85 95.31 16.66 93.88 16.66C91.78 16.66 89.77 17.07 87.91 17.88C86.05 18.69 84.41 19.8 83.02 21.18C81.63 22.57 80.52 24.21 79.72 26.07C78.91 27.93 78.5 29.94 78.5 32.04C78.5 34.14 78.91 36.15 79.72 38.01C80.53 39.87 81.64 41.51 83.02 42.9C84.41 44.29 86.05 45.4 87.91 46.21C89.77 47.02 91.78 47.43 93.88 47.43C95.31 47.43 96.71 47.24 98.04 46.86C99.37 46.48 100.63 45.94 101.77 45.26C102.91 44.57 103.97 43.74 104.91 42.79C105.85 41.83 106.66 40.75 107.31 39.56L107.47 39.26L101.72 36.93L101.58 37.14C101.17 37.76 100.68 38.35 100.13 38.9C99.58 39.45 98.96 39.94 98.3 40.35C97.63 40.76 96.92 41.08 96.18 41.31C95.44 41.54 94.67 41.65 93.88 41.65C92.61 41.65 91.4 41.39 90.29 40.86C89.18 40.33 88.2 39.63 87.38 38.76C86.56 37.89 85.9 36.86 85.41 35.71C84.92 34.56 84.68 33.33 84.68 32.05C84.68 30.77 84.93 29.57 85.41 28.41C85.9 27.24 86.56 26.21 87.38 25.34C88.2 24.47 89.18 23.76 90.29 23.24C91.4 22.72 92.61 22.45 93.88 22.45C94.67 22.45 95.44 22.57 96.18 22.79C96.92 23.02 97.63 23.34 98.3 23.75C98.97 24.16 99.58 24.64 100.14 25.18C100.69 25.72 101.18 26.31 101.59 26.92L101.73 27.13L107.49 24.8L107.32 24.5C106.67 23.34 105.87 22.27 104.93 21.31" fill="#012169"/>
<path d="M133.77 31.99C133.77 33.27 133.52 34.5 133.04 35.65C132.55 36.8 131.88 37.84 131.05 38.72C130.22 39.6 129.23 40.32 128.12 40.84C127.02 41.36 125.81 41.63 124.54 41.63C123.27 41.63 122.06 41.37 120.96 40.84C119.85 40.32 118.87 39.6 118.03 38.72C117.2 37.84 116.53 36.8 116.04 35.65C115.56 34.5 115.31 33.27 115.31 31.99C115.31 30.71 115.56 29.51 116.04 28.35C116.53 27.18 117.19 26.15 118.02 25.28C118.85 24.41 119.83 23.7 120.95 23.18C122.05 22.66 123.26 22.39 124.53 22.39C125.8 22.39 127.01 22.65 128.11 23.18C129.22 23.71 130.21 24.41 131.04 25.28C131.87 26.15 132.54 27.18 133.02 28.35C133.51 29.51 133.75 30.74 133.75 31.99M135.42 21.1C134.03 19.71 132.39 18.6 130.53 17.8C128.67 16.99 126.65 16.58 124.52 16.58C122.39 16.58 120.41 16.99 118.55 17.8C116.69 18.61 115.05 19.72 113.66 21.1C112.27 22.49 111.16 24.14 110.36 26.01C109.55 27.88 109.14 29.9 109.14 32C109.14 34.1 109.55 36.15 110.36 38.01C111.17 39.87 112.28 41.51 113.66 42.9C115.04 44.29 116.69 45.4 118.55 46.21C120.41 47.02 122.42 47.43 124.52 47.43C126.62 47.43 128.67 47.02 130.53 46.21C132.39 45.4 134.03 44.29 135.42 42.9C136.81 41.51 137.92 39.87 138.72 38.01C139.53 36.15 139.94 34.13 139.94 32C139.94 29.87 139.53 27.89 138.72 26.01C137.91 24.14 136.8 22.49 135.42 21.1Z" fill="#012169"/>
<path d="M189.11 32.03C189.11 33.99 188.84 35.6 188.3 36.8C187.76 38 187.08 38.94 186.26 39.61C185.44 40.28 184.51 40.73 183.5 40.96C182.47 41.19 181.43 41.31 180.42 41.31H174.8V22.75H180.42C181.4 22.75 182.42 22.87 183.46 23.1C184.47 23.33 185.41 23.78 186.24 24.43C187.07 25.09 187.76 26.03 188.3 27.24C188.84 28.45 189.11 30.07 189.11 32.03ZM190.85 20.87C188.13 18.39 184.61 17.13 180.4 17.13H168.62V46.85H180.4C182.49 46.85 184.44 46.54 186.2 45.92C187.97 45.3 189.53 44.37 190.85 43.15C192.31 41.83 193.42 40.2 194.16 38.32C194.9 36.45 195.27 34.32 195.27 31.98C195.27 29.64 194.9 27.56 194.16 25.68C193.42 23.8 192.3 22.18 190.85 20.85" fill="#012169"/>
<path d="M63.98 0H0V63.98H63.98V0Z" fill="#012169"/>
<path d="M3.42002 60.57H60.57V3.42002H3.42002V60.57ZM61.22 61.22H2.77002V2.77002H61.22V61.22Z" fill="white"/>
<path d="M39.83 21.77L44.32 18.77L48.81 21.77L47.35 16.57L51.58 13.23L46.19 13.02L44.32 7.96002L42.45 13.02L37.06 13.23L41.3 16.57L39.83 21.77Z" fill="white"/>
<path d="M47.82 40.97C47.07 39.95 46.12 39.16 44.98 38.6C45.81 38.01 46.49 37.27 47.01 36.38C47.77 35.08 48.16 33.65 48.16 32.13C48.16 31.18 47.99 30.22 47.66 29.29C47.33 28.35 46.85 27.51 46.25 26.77C45.64 26.03 44.88 25.41 44.01 24.95C43.12 24.47 42.11 24.23 41.02 24.23H26.25V37.58C24.79 37.66 23.41 37.38 22.19 36.76C21.56 36.44 20.99 36.03 20.45 35.58C20.04 35.23 19.64 34.87 19.29 34.45C18.47 33.48 17.81 32.34 17.35 31.08C16.89 29.82 16.65 28.46 16.65 27.06C16.65 25.8 16.85 24.53 17.24 23.29C17.62 22.06 18.21 20.93 18.98 19.95C19.74 18.98 20.7 18.18 21.82 17.57C23.44 16.7 25.51 16.42 27.73 16.9C28.41 17.04 29.08 17.29 29.73 17.63C30.37 17.97 30.98 18.43 31.52 18.98C32.06 19.54 32.54 20.24 32.93 21.07L33.26 21.77L37.24 19.19L36.98 18.66C36.05 16.72 34.61 15.12 32.7 13.91C30.79 12.7 28.48 12.09 25.83 12.09C23.61 12.09 21.59 12.53 19.82 13.4C18.07 14.26 16.57 15.41 15.35 16.82C14.14 18.22 13.21 19.83 12.59 21.59C11.97 23.35 11.65 25.13 11.65 26.9C11.65 28.78 11.99 30.65 12.67 32.46C13.35 34.27 14.31 35.91 15.55 37.34C16.78 38.77 18.27 39.94 19.96 40.83C20.11 40.91 20.28 40.97 20.44 41.04C20.54 41.09 20.64 41.13 20.74 41.18C21.04 41.31 21.35 41.43 21.66 41.54C21.87 41.61 22.08 41.68 22.29 41.74C22.61 41.83 22.93 41.91 23.26 41.97C23.48 42.01 23.7 42.05 23.92 42.08C24.48 42.16 25.05 42.19 25.63 42.19C25.83 42.19 26.04 42.19 26.24 42.18C27.19 42.13 28.16 41.98 29.15 41.73C30.34 41.43 31.49 40.97 32.56 40.39C32.96 40.17 33.35 39.93 33.73 39.67C33.98 39.5 34.22 39.32 34.46 39.13C34.81 38.85 35.15 38.54 35.47 38.22C35.69 38 35.89 37.78 36.09 37.54C36.28 37.3 36.47 37.06 36.64 36.81C36.98 36.3 37.27 35.76 37.52 35.19L37.69 34.74L37.27 34.36L34.22 31.55C34.22 31.55 33.91 32.27 33.74 32.6C33.57 32.93 33.21 33.51 32.96 33.84C32.6 34.32 32.3 34.68 31.9 35.08C31.68 35.3 31.44 35.5 31.2 35.69V28.7H39.79C40.28 28.7 40.73 28.8 41.16 29C41.59 29.2 41.95 29.47 42.24 29.82C42.55 30.18 42.79 30.63 42.98 31.13C43.17 31.64 43.26 32.19 43.26 32.78C43.26 33.33 43.16 33.86 42.97 34.35C42.77 34.84 42.51 35.28 42.18 35.64C41.85 36 41.47 36.29 41.01 36.5C40.58 36.71 40.08 36.81 39.55 36.81H38.26C38.11 37.07 37.96 37.33 37.79 37.58C37.4 38.16 36.95 38.7 36.46 39.19C35.81 39.84 35.09 40.42 34.33 40.94C34.2 41.02 34.26 41.07 34.33 41.07H40.68C41.21 41.07 41.7 41.18 42.14 41.4C42.59 41.62 42.98 41.93 43.31 42.31C43.64 42.7 43.91 43.16 44.11 43.69C44.31 44.21 44.4 44.76 44.4 45.31C44.4 45.86 44.3 46.39 44.09 46.89C43.89 47.39 43.6 47.83 43.23 48.21C42.86 48.59 42.43 48.9 41.94 49.13C41.48 49.35 40.96 49.46 40.4 49.46H31.21V42.52C30.66 42.73 30.09 42.91 29.52 43.05C28.52 43.31 27.47 43.46 26.34 43.51C26.32 43.51 26.3 43.51 26.27 43.51V53.91H40.4C41.61 53.91 42.77 53.72 43.83 53.35C44.9 52.98 45.86 52.44 46.68 51.75C47.51 51.05 48.17 50.2 48.65 49.21C49.13 48.22 49.38 47.11 49.38 45.92C49.38 44.03 48.86 42.35 47.83 40.95" fill="white"/>
<path d="M48.94 53.96C48.37 53.96 47.96 53.53 47.96 52.96C47.96 52.36 48.41 51.96 48.94 51.96C49.47 51.96 49.92 52.36 49.92 52.96C49.92 53.56 49.47 53.96 48.94 53.96ZM48.94 52.14C48.51 52.14 48.17 52.48 48.17 52.96C48.17 53.41 48.46 53.78 48.94 53.78C49.37 53.78 49.7 53.44 49.7 52.96C49.7 52.48 49.36 52.14 48.94 52.14ZM48.75 53.53H48.57V52.43H48.99C49.26 52.43 49.39 52.52 49.39 52.75C49.39 52.95 49.27 53.03 49.1 53.05L49.41 53.53H49.2L48.91 53.06H48.74V53.53H48.75ZM48.95 52.9C49.09 52.9 49.21 52.89 49.21 52.73C49.21 52.6 49.08 52.58 48.97 52.58H48.75V52.9H48.95Z" fill="white"/>
</g>
<defs>
<clipPath id="clip0_4001_43">
<rect width="497.49" height="63.98" fill="white"/>
</clipPath>
</defs>
</svg>
